{
  "accessors": [
    {
      "bufferView": 2,
      "componentType": 5126,
      "count": 432,
      "max": [
        0.3036869168281555,
        0.016518691554665565,
        2.1142187118530273
      ],
      "min": [
        -0.3840094208717346,
        -0.6859159469604492,
        -0.25363636016845703
      ],
      "type": "VEC3"
    },
    {
      "bufferView": 2,
      "byteOffset": 5184,
      "componentType": 5126,
      "count": 432,
      "max": [
        0.020575866103172302,
        1.0,
        0.9852465391159058
      ],
      "min": [
        -0.021165916696190834,
        -1.0,
        -0.9833875894546509
      ],
      "type": "VEC3"
    },
    {
      "bufferView": 1,
      "componentType": 5126,
      "count": 432,
      "max": [
        1.0,
        0.8347740173339844
      ],
      "min": [
        0.0,
        0.0
      ],
      "type": "VEC2"
    },
    {
      "bufferView": 0,
      "componentType": 5125,
      "count": 960,
      "type": "SCALAR"
    },
    {
      "bufferView": 2,
      "byteOffset": 10368,
      "componentType": 5126,
      "count": 3205,
      "max": [
        -0.41837531328201294,
        -0.09654603898525238,
        2.724855661392212
      ],
      "min": [
        -0.6437898874282837,
        -0.5638549327850342,
        -0.35109302401542664
      ],
      "type": "VEC3"
    },
    {
      "bufferView": 2,
      "byteOffset": 48828,
      "componentType": 5126,
      "count": 3205,
      "max": [
        1.0,
        1.0,
        1.0
      ],
      "min": [
        -1.0,
        -1.0,
        -1.0
      ],
      "type": "VEC3"
    },
    {
      "bufferView": 1,
      "byteOffset": 3456,
      "componentType": 5126,
      "count": 3205,
      "max": [
        0.875,
        1.0
      ],
      "min": [
        0.125,
        0.0
      ],
      "type": "VEC2"
    },
    {
      "bufferView": 0,
      "byteOffset": 3840,
      "componentType": 5125,
      "count": 10800,
      "type": "SCALAR"
    },
    {
      "bufferView": 2,
      "byteOffset": 87288,
      "componentType": 5126,
      "count": 5340,
      "max": [
        -0.4086553752422333,
        -0.022855758666992188,
        3.4064316749572754
      ],
      "min": [
        -0.6396750807762146,
        -0.7212762832641602,
        -0.13966894149780273
      ],
      "type": "VEC3"
    },
    {
      "bufferView": 2,
      "byteOffset": 151368,
      "componentType": 5126,
      "count": 5340,
      "max": [
        0.8684844970703125,
        1.0,
        0.8946763277053833
      ],
      "min": [
        -0.8684878945350647,
        -1.0,
        -0.8946932554244995
      ],
      "type": "VEC3"
    },
    {
      "bufferView": 1,
      "byteOffset": 29096,
      "componentType": 5126,
      "count": 5340,
      "max": [
        0.65625,
        0.3594925105571747
      ],
      "min": [
        0.3437499403953552,
        -8.940696716308594e-08
      ],
      "type": "VEC2"
    },
    {
      "bufferView": 0,
      "byteOffset": 47040,
      "componentType": 5125,
      "count": 18720,
      "type": "SCALAR"
    },
    {
      "bufferView": 2,
      "byteOffset": 215448,
      "componentType": 5126,
      "count": 4621,
      "max": [
        -0.045197900384664536,
        -0.004093170166015625,
        3.4593405723571777
      ],
      "min": [
        -0.7049062848091125,
        -0.7496843338012695,
        -0.19257783889770508
      ],
      "type": "VEC3"
    },
    {
      "bufferView": 2,
      "byteOffset": 270900,
      "componentType": 5126,
      "count": 4621,
      "max": [
        0.9999213814735413,
        1.0,
        0.9999470114707947
      ],
      "min": [
        -0.9999213814735413,
        -1.0,
        -0.9999470114707947
      ],
      "type": "VEC3"
    },
    {
      "bufferView": 1,
      "byteOffset": 71816,
      "componentType": 5126,
      "count": 4621,
      "max": [
        1.0000001192092896,
        1.0
      ],
      "min": [
        0.0,
        -1.564621925354004e-07
      ],
      "type": "VEC2"
    },
    {
      "bufferView": 0,
      "byteOffset": 121920,
      "componentType": 5125,
      "count": 22080,
      "type": "SCALAR"
    },
    {
      "bufferView": 2,
      "byteOffset": 326352,
      "componentType": 5126,
      "count": 3000,
      "max": [
        -0.45252156257629395,
        -0.02481842041015625,
        3.3855671882629395
      ],
      "min": [
        -0.6099019050598145,
        -0.7145748138427734,
        -0.1188054084777832
      ],
      "type": "VEC3"
    },
    {
      "bufferView": 2,
      "byteOffset": 362352,
      "componentType": 5126,
      "count": 3000,
      "max": [
        0.9954283237457275,
        1.0,
        0.9979288578033447
      ],
      "min": [
        -0.9954283833503723,
        -1.0,
        -0.9979322552680969
      ],
      "type": "VEC3"
    },
    {
      "bufferView": 1,
      "byteOffset": 108784,
      "componentType": 5126,
      "count": 3000,
      "max": [
        0.65625,
        1.0
      ],
      "min": [
        0.34375,
        1.4901161193847656e-08
      ],
      "type": "VEC2"
    },
    {
      "bufferView": 0,
      "byteOffset": 210240,
      "componentType": 5125,
      "count": 5760,
      "type": "SCALAR"
    },
    {
      "bufferView": 2,
      "byteOffset": 398352,
      "componentType": 5126,
      "count": 2019,
      "max": [
        0.35067176818847656,
        0.010120391845703125,
        3.5764455795288086
      ],
      "min": [
        -0.5142097473144531,
        -0.739506721496582,
        -0.3059001564979553
      ],
      "type": "VEC3"
    },
    {
      "bufferView": 2,
      "byteOffset": 422580,
      "componentType": 5126,
      "count": 2019,
      "max": [
        1.0,
        1.0,
        1.0
      ],
      "min": [
        -1.0,
        -1.0,
        -1.0
      ],
      "type": "VEC3"
    },
    {
      "bufferView": 1,
      "byteOffset": 132784,
      "componentType": 5126,
      "count": 2019,
      "max": [
        1.0,
        1.0
      ],
      "min": [
        -4.470348358154297e-08,
        0.0
      ],
      "type": "VEC2"
    },
    {
      "bufferView": 0,
      "byteOffset": 233280,
      "componentType": 5125,
      "count": 4896,
      "type": "SCALAR"
    },
    {
      "bufferView": 2,
      "byteOffset": 446808,
      "componentType": 5126,
      "count": 284,
      "max": [
        -0.04385225474834442,
        -0.14145559072494507,
        2.8498599529266357
      ],
      "min": [
        -0.28371304273605347,
        -0.6113854646682739,
        2.659003973007202
      ],
      "type": "VEC3"
    },
    {
      "bufferView": 2,
      "byteOffset": 450216,
      "componentType": 5126,
      "count": 284,
      "max": [
        1.0,
        1.0,
        1.0
      ],
      "min": [
        -1.0,
        -1.0,
        -1.0
      ],
      "type": "VEC3"
    },
    {
      "bufferView": 1,
      "byteOffset": 148936,
      "componentType": 5126,
      "count": 284,
      "max": [
        0.8541903495788574,
        0.9791903495788574
      ],
      "min": [
        0.14580966532230377,
        2.3283064365386963e-09
      ],
      "type": "VEC2"
    },
    {
      "bufferView": 0,
      "byteOffset": 252864,
      "componentType": 5125,
      "count": 1152,
      "type": "SCALAR"
    },
    {
      "bufferView": 2,
      "byteOffset": 453624,
      "componentType": 5126,
      "count": 1115,
      "max": [
        -0.05229663848876953,
        -0.14348983764648438,
        3.0709657669067383
      ],
      "min": [
        -0.44885754585266113,
        -0.2982168197631836,
        2.9172511100769043
      ],
      "type": "VEC3"
    },
    {
      "bufferView": 2,
      "byteOffset": 467004,
      "componentType": 5126,
      "count": 1115,
      "max": [
        0.9993435740470886,
        0.9997513890266418,
        0.9704155921936035
      ],
      "min": [
        -0.9993448853492737,
        -0.9997512102127075,
        -0.9902533292770386
      ],
      "type": "VEC3"
    },
    {
      "bufferView": 1,
      "byteOffset": 151208,
      "componentType": 5126,
      "count": 1115,
      "max": [
        0.65625,
        1.0
      ],
      "min": [
        0.3437499403953552,
        -8.940696716308594e-08
      ],
      "type": "VEC2"
    },
    {
      "bufferView": 0,
      "byteOffset": 257472,
      "componentType": 5125,
      "count": 2736,
      "type": "SCALAR"
    }
  ],
  "asset": {
    "extras": {
      "author": "Dayvable (https://sketchfab.com/Dayvable)",
      "license": "CC-BY-4.0 (http://creativecommons.org/licenses/by/4.0/)",
      "source": "https://sketchfab.com/3d-models/airport-luggage-cart-d603df609698459a98d797b5a7618845",
      "title": "Airport Luggage Cart"
    },
    "generator": "Sketchfab-13.74.0",
    "version": "2.0"
  },
  "bufferViews": [
    {
      "buffer": 0,
      "byteLength": 268416,
      "name": "floatBufferViews",
      "target": 34963
    },
    {
      "buffer": 0,
      "byteLength": 160128,
      "byteOffset": 268416,
      "byteStride": 8,
      "name": "floatBufferViews",
      "target": 34962
    },
    {
      "buffer": 0,
      "byteLength": 480384,
      "byteOffset": 428544,
      "byteStride": 12,
      "name": "floatBufferViews",
      "target": 34962
    }
  ],
  "buffers": [
    {
      "byteLength": 908928,
      "uri": "scene.bin"
    }
  ],
  "materials": [
    {
      "doubleSided": true,
      "name": "blinn11",
      "pbrMetallicRoughness": {
        "baseColorFactor": [
          0.05959000000000004,
          0.360156,
          0.5899999999999999,
          1.0
        ],
        "metallicFactor": 0.0,
        "roughnessFactor": 0.9300445227
      }
    },
    {
      "doubleSided": true,
      "name": "BrushedMetal",
      "pbrMetallicRoughness": {
        "baseColorFactor": [
          0.591889,
          0.601167,
          0.629,
          1.0
        ],
        "metallicFactor": 0.0,
        "roughnessFactor": 0.8655666899
      }
    },
    {
      "doubleSided": true,
      "name": "TireCenter_cart",
      "pbrMetallicRoughness": {
        "baseColorFactor": [
          0.787991,
          0.790631,
          0.79675,
          1.0
        ],
        "metallicFactor": 0.0,
        "roughnessFactor": 0.8232362487
      }
    },
    {
      "doubleSided": true,
      "name": "TireRubber",
      "pbrMetallicRoughness": {
        "baseColorFactor": [
          0.021807634948988765,
          0.017445136293755832,
          0.017445136293755832,
          1.0
        ],
        "metallicFactor": 0.0,
        "roughnessFactor": 0.9831859951
      }
    },
    {
      "doubleSided": true,
      "name": "LugNut",
      "pbrMetallicRoughness": {
        "baseColorFactor": [
          0.18,
          0.16065,
          0.15678,
          1.0
        ],
        "metallicFactor": 0.0,
        "roughnessFactor": 0.9632201709
      }
    },
    {
      "doubleSided": true,
      "name": "LuggageCart",
      "pbrMetallicRoughness": {
        "baseColorFactor": [
          0.87805,
          0.87805,
          0.87805,
          1.0
        ],
        "metallicFactor": 0.0,
        "roughnessFactor": 0.26657774390243905
      }
    },
    {
      "doubleSided": true,
      "name": "CartSeat",
      "pbrMetallicRoughness": {
        "baseColorFactor": [
          0.16460807970228097,
          0.08954410579849383,
          0.07301812458004782,
          1.0
        ],
        "metallicFactor": 0.0,
        "roughnessFactor": 0.7056021341463414
      }
    },
    {
      "doubleSided": true,
      "name": "SecondaryBldgnColor",
      "pbrMetallicRoughness": {
        "baseColorFactor": [
          0.312081,
          0.387721,
          0.539,
          1.0
        ],
        "metallicFactor": 0.0,
        "roughnessFactor": 0.9144564737
      }
    }
  ],
  "meshes": [
    {
      "name": "BaggageCar_Curtain_07.002_blinn11_0",
      "primitives": [
        {
          "attributes": {
            "NORMAL": 1,
            "POSITION": 0,
            "TEXCOORD_0": 2
          },
          "indices": 3,
          "material": 0,
          "mode": 4
        }
      ]
    },
    {
      "name": "BaggageCar_Curtain_07.002_BrushedMetal_0",
      "primitives": [
        {
          "attributes": {
            "NORMAL": 5,
            "POSITION": 4,
            "TEXCOORD_0": 6
          },
          "indices": 7,
          "material": 1,
          "mode": 4
        }
      ]
    },
    {
      "name": "BaggageCar_Curtain_07.002_TireCenter_cart_0",
      "primitives": [
        {
          "attributes": {
            "NORMAL": 9,
            "POSITION": 8,
            "TEXCOORD_0": 10
          },
          "indices": 11,
          "material": 2,
          "mode": 4
        }
      ]
    },
    {
      "name": "BaggageCar_Curtain_07.002_TireRubber_0",
      "primitives": [
        {
          "attributes": {
            "NORMAL": 13,
            "POSITION": 12,
            "TEXCOORD_0": 14
          },
          "indices": 15,
          "material": 3,
          "mode": 4
        }
      ]
    },
    {
      "name": "BaggageCar_Curtain_07.002_LugNut_0",
      "primitives": [
        {
          "attributes": {
            "NORMAL": 17,
            "POSITION": 16,
            "TEXCOORD_0": 18
          },
          "indices": 19,
          "material": 4,
          "mode": 4
        }
      ]
    },
    {
      "name": "BaggageCar_Curtain_07.002_LuggageCart_0",
      "primitives": [
        {
          "attributes": {
            "NORMAL": 21,
            "POSITION": 20,
            "TEXCOORD_0": 22
          },
          "indices": 23,
          "material": 5,
          "mode": 4
        }
      ]
    },
    {
      "name": "BaggageCar_Curtain_07.002_CartSeat_0",
      "primitives": [
        {
          "attributes": {
            "NORMAL": 25,
            "POSITION": 24,
            "TEXCOORD_0": 26
          },
          "indices": 27,
          "material": 6,
          "mode": 4
        }
      ]
    },
    {
      "name": "BaggageCar_Curtain_07.002_SecondaryBldgnColor_0",
      "primitives": [
        {
          "attributes": {
            "NORMAL": 29,
            "POSITION": 28,
            "TEXCOORD_0": 30
          },
          "indices": 31,
          "material": 7,
          "mode": 4
        }
      ]
    }
  ],
  "nodes": [
    {
      "children": [
        1
      ],
      "matrix": [
        1.0,
        0.0,
        0.0,
        0.0,
        0.0,
        2.220446049250313e-16,
        -1.0,
        0.0,
        0.0,
        1.0,
        2.220446049250313e-16,
        0.0,
        0.0,
        0.0,
        0.0,
        1.0
      ],
      "name": "Sketchfab_model"
    },
    {
      "children": [
        2
      ],
      "matrix": [
        1.0,
        0.0,
        0.0,
        0.0,
        0.0,
        0.0,
        1.0,
        0.0,
        0.0,
        -1.0,
        0.0,
        0.0,
        0.0,
        0.0,
        0.0,
        1.0
      ],
      "name": "8e14c4be846e461b8d16d61b60327c58.fbx"
    },
    {
      "children": [
        3
      ],
      "name": "RootNode"
    },
    {
      "children": [
        4,
        5,
        6,
        7,
        8,
        9,
        10,
        11
      ],
      "matrix": [
        -3.139164788112936e-05,
        99.99999999999505,
        2.344893598933683e-13,
        -0.0,
        99.99999999999393,
        3.13916478589249e-05,
        -1.5099579909783709e-05,
        -0.0,
        1.8420319355320092e-05,
        5.496382907228558e-12,
        121.9922637939439,
        -0.0,
        37.89596176147461,
        70.78850555419922,
        -193.26072692871094,
        1.0
      ],
      "name": "BaggageCar_Curtain_07.002"
    },
    {
      "mesh": 0,
      "name": "BaggageCar_Curtain_07.002_blinn11_0"
    },
    {
      "mesh": 1,
      "name": "BaggageCar_Curtain_07.002_BrushedMetal_0"
    },
    {
      "mesh": 2,
      "name": "BaggageCar_Curtain_07.002_TireCenter_cart_0"
    },
    {
      "mesh": 3,
      "name": "BaggageCar_Curtain_07.002_TireRubber_0"
    },
    {
      "mesh": 4,
      "name": "BaggageCar_Curtain_07.002_LugNut_0"
    },
    {
      "mesh": 5,
      "name": "BaggageCar_Curtain_07.002_LuggageCart_0"
    },
    {
      "mesh": 6,
      "name": "BaggageCar_Curtain_07.002_CartSeat_0"
    },
    {
      "mesh": 7,
      "name": "BaggageCar_Curtain_07.002_SecondaryBldgnColor_0"
    }
  ],
  "scene": 0,
  "scenes": [
    {
      "name": "Sketchfab_Scene",
      "nodes": [
        0
      ]
    }
  ]
}
