{
  "accessors": [
    {
      "bufferView": 1,
      "componentType": 5126,
      "count": 86,
      "max": [
        1.0,
        0.03194228932261467,
        1.0
      ],
      "min": [
        -1.0,
        -0.003563125152140856,
        -1.0
      ],
      "type": "VEC3"
    },
    {
      "bufferView": 1,
      "byteOffset": 1032,
      "componentType": 5126,
      "count": 86,
      "max": [
        1.0,
        1.0,
        1.0
      ],
      "min": [
        -1.0,
        -1.0,
        -1.0
      ],
      "type": "VEC3"
    },
    {
      "bufferView": 0,
      "componentType": 5125,
      "count": 186,
      "type": "SCALAR"
    },
    {
      "bufferView": 1,
      "byteOffset": 2064,
      "componentType": 5126,
      "count": 113,
      "max": [
        1.0,
        0.03194228932261467,
        1.0
      ],
      "min": [
        -1.0,
        0.0,
        -1.0
      ],
      "type": "VEC3"
    },
    {
      "bufferView": 1,
      "byteOffset": 3420,
      "componentType": 5126,
      "count": 113,
      "max": [
        1.0,
        1.0,
        1.0
      ],
      "min": [
        -1.0,
        0.0,
        -1.0
      ],
      "type": "VEC3"
    },
    {
      "bufferView": 0,
      "byteOffset": 744,
      "componentType": 5125,
      "count": 246,
      "type": "SCALAR"
    },
    {
      "bufferView": 1,
      "byteOffset": 4776,
      "componentType": 5126,
      "count": 864,
      "max": [
        0.9208168387413025,
        0.0004561680252663791,
        0.810278594493866
      ],
      "min": [
        -0.9208168387413025,
        -7.279125746606496e-09,
        -0.9671168327331543
      ],
      "type": "VEC3"
    },
    {
      "bufferView": 1,
      "byteOffset": 15144,
      "componentType": 5126,
      "count": 864,
      "max": [
        1.0,
        1.0,
        1.0
      ],
      "min": [
        -1.0,
        -1.0,
        -1.0
      ],
      "type": "VEC3"
    },
    {
      "bufferView": 0,
      "byteOffset": 1728,
      "componentType": 5125,
      "count": 1296,
      "type": "SCALAR"
    },
    {
      "bufferView": 1,
      "byteOffset": 25512,
      "componentType": 5126,
      "count": 8600,
      "max": [
        1.0071680545806885,
        0.16928337514400482,
        0.7767046093940735
      ],
      "min": [
        -0.9887945055961609,
        -0.006661698222160339,
        -1.0162742137908936
      ],
      "type": "VEC3"
    },
    {
      "bufferView": 1,
      "byteOffset": 128712,
      "componentType": 5126,
      "count": 8600,
      "max": [
        0.9999513626098633,
        0.990634560585022,
        0.9992245435714722
      ],
      "min": [
        -0.9999233484268188,
        -1.0,
        -0.9993922710418701
      ],
      "type": "VEC3"
    },
    {
      "bufferView": 0,
      "byteOffset": 6912,
      "componentType": 5125,
      "count": 18450,
      "type": "SCALAR"
    },
    {
      "bufferView": 1,
      "byteOffset": 231912,
      "componentType": 5126,
      "count": 7690,
      "max": [
        1.0570651292800903,
        0.2719646692276001,
        0.7954578399658203
      ],
      "min": [
        -1.0391700267791748,
        -0.006661698222160339,
        -1.0428229570388794
      ],
      "type": "VEC3"
    },
    {
      "bufferView": 1,
      "byteOffset": 324192,
      "componentType": 5126,
      "count": 7690,
      "max": [
        0.9994393587112427,
        0.9995448589324951,
        0.9994238615036011
      ],
      "min": [
        -0.9990794658660889,
        -0.999374508857727,
        -0.999372124671936
      ],
      "type": "VEC3"
    },
    {
      "bufferView": 0,
      "byteOffset": 80712,
      "componentType": 5125,
      "count": 20160,
      "type": "SCALAR"
    },
    {
      "bufferView": 1,
      "byteOffset": 416472,
      "componentType": 5126,
      "count": 425,
      "max": [
        0.9542735815048218,
        0.033833879977464676,
        0.5910142064094543
      ],
      "min": [
        -0.9710878133773804,
        -0.006661698222160339,
        -0.9736805558204651
      ],
      "type": "VEC3"
    },
    {
      "bufferView": 1,
      "byteOffset": 421572,
      "componentType": 5126,
      "count": 425,
      "max": [
        0.995423436164856,
        0.9691903591156006,
        0.9983674883842468
      ],
      "min": [
        -0.9986847639083862,
        -1.0,
        -0.9990619421005249
      ],
      "type": "VEC3"
    },
    {
      "bufferView": 0,
      "byteOffset": 161352,
      "componentType": 5125,
      "count": 930,
      "type": "SCALAR"
    }
  ],
  "asset": {
    "extras": {
      "author": "xenera (https://sketchfab.com/xenera)",
      "license": "CC-BY-NC-ND-4.0 (http://creativecommons.org/licenses/by-nc-nd/4.0/)",
      "source": "https://sketchfab.com/3d-models/town-building-parking-c65482351cc843458d43317923b469a0",
      "title": "town_building-parking"
    },
    "generator": "Sketchfab-12.68.0",
    "version": "2.0"
  },
  "bufferViews": [
    {
      "buffer": 0,
      "byteLength": 165072,
      "name": "floatBufferViews",
      "target": 34963
    },
    {
      "buffer": 0,
      "byteLength": 426672,
      "byteOffset": 165072,
      "byteStride": 12,
      "name": "floatBufferViews",
      "target": 34962
    }
  ],
  "buffers": [
    {
      "byteLength": 591744,
      "uri": "scene.bin"
    }
  ],
  "materials": [
    {
      "doubleSided": true,
      "name": "building_grey.004",
      "pbrMetallicRoughness": {
        "baseColorFactor": [
          0.195959,
          0.195959,
          0.195959,
          1.0
        ],
        "metallicFactor": 0.0,
        "roughnessFactor": 0.8
      }
    },
    {
      "doubleSided": true,
      "name": "building_green2",
      "pbrMetallicRoughness": {
        "baseColorFactor": [
          0.093745,
          0.1523,
          0.0509914,
          1.0
        ],
        "metallicFactor": 0.0
      }
    },
    {
      "doubleSided": true,
      "name": "building_white.001",
      "pbrMetallicRoughness": {
        "baseColorFactor": [
          0.735602,
          0.735602,
          0.735602,
          1.0
        ],
        "metallicFactor": 0.0,
        "roughnessFactor": 0.8
      }
    },
    {
      "doubleSided": true,
      "name": "tree_brown.002",
      "pbrMetallicRoughness": {
        "baseColorFactor": [
          0.132854,
          0.065834,
          0.04622,
          1.0
        ],
        "metallicFactor": 0.0,
        "roughnessFactor": 0.853659
      }
    },
    {
      "doubleSided": true,
      "name": "tree_green.002",
      "pbrMetallicRoughness": {
        "baseColorFactor": [
          0.144832,
          0.152315,
          0.070464,
          1.0
        ],
        "metallicFactor": 0.0,
        "roughnessFactor": 0.853659
      }
    },
    {
      "doubleSided": true,
      "name": "tree_rock.002",
      "pbrMetallicRoughness": {
        "baseColorFactor": [
          1.0,
          0.723849,
          0.540594,
          1.0
        ],
        "metallicFactor": 0.0,
        "roughnessFactor": 0.841463
      }
    }
  ],
  "meshes": [
    {
      "name": "Object_0",
      "primitives": [
        {
          "attributes": {
            "NORMAL": 1,
            "POSITION": 0
          },
          "indices": 2,
          "material": 0,
          "mode": 4
        }
      ]
    },
    {
      "name": "Object_1",
      "primitives": [
        {
          "attributes": {
            "NORMAL": 4,
            "POSITION": 3
          },
          "indices": 5,
          "material": 1,
          "mode": 4
        }
      ]
    },
    {
      "name": "Object_2",
      "primitives": [
        {
          "attributes": {
            "NORMAL": 7,
            "POSITION": 6
          },
          "indices": 8,
          "material": 2,
          "mode": 4
        }
      ]
    },
    {
      "name": "Object_3",
      "primitives": [
        {
          "attributes": {
            "NORMAL": 10,
            "POSITION": 9
          },
          "indices": 11,
          "material": 3,
          "mode": 4
        }
      ]
    },
    {
      "name": "Object_4",
      "primitives": [
        {
          "attributes": {
            "NORMAL": 13,
            "POSITION": 12
          },
          "indices": 14,
          "material": 4,
          "mode": 4
        }
      ]
    },
    {
      "name": "Object_5",
      "primitives": [
        {
          "attributes": {
            "NORMAL": 16,
            "POSITION": 15
          },
          "indices": 17,
          "material": 5,
          "mode": 4
        }
      ]
    }
  ],
  "nodes": [
    {
      "children": [
        1
      ],
      "matrix": [
        1.0,
        0.0,
        0.0,
        0.0,
        0.0,
        2.220446049250313e-16,
        -1.0,
        0.0,
        0.0,
        1.0,
        2.220446049250313e-16,
        0.0,
        0.0,
        0.0,
        0.0,
        1.0
      ],
      "name": "Sketchfab_model"
    },
    {
      "children": [
        2
      ],
      "name": "root"
    },
    {
      "children": [
        3
      ],
      "matrix": [
        1.0,
        0.0,
        0.0,
        0.0,
        0.0,
        2.220446049250313e-16,
        1.0,
        0.0,
        0.0,
        -1.0,
        2.220446049250313e-16,
        0.0,
        0.0,
        0.0,
        0.0,
        1.0
      ],
      "name": "GLTF_SceneRootNode"
    },
    {
      "children": [
        4,
        5,
        6,
        7,
        8,
        9
      ],
      "matrix": [
        6.0,
        0.0,
        0.0,
        0.0,
        0.0,
        6.0,
        0.0,
        0.0,
        0.0,
        0.0,
        6.0,
        0.0,
        0.0,
        0.0,
        0.0,
        1.0
      ],
      "name": "parking_0"
    },
    {
      "mesh": 0,
      "name": "Object_4"
    },
    {
      "mesh": 1,
      "name": "Object_5"
    },
    {
      "mesh": 2,
      "name": "Object_6"
    },
    {
      "mesh": 3,
      "name": "Object_7"
    },
    {
      "mesh": 4,
      "name": "Object_8"
    },
    {
      "mesh": 5,
      "name": "Object_9"
    }
  ],
  "scene": 0,
  "scenes": [
    {
      "name": "Sketchfab_Scene",
      "nodes": [
        0
      ]
    }
  ]
}
