{
  "accessors": [
    {
      "bufferView": 2,
      "componentType": 5126,
      "count": 2445,
      "max": [
        0.4216511845588684,
        0.4216511845588684,
        1.1765491962432861
      ],
      "min": [
        -0.4216511845588684,
        -0.4216511845588684,
        -1.0500060319900513
      ],
      "type": "VEC3"
    },
    {
      "bufferView": 2,
      "byteOffset": 29340,
      "componentType": 5126,
      "count": 2445,
      "max": [
        1.0,
        1.0,
        1.0
      ],
      "min": [
        -1.0,
        -1.0,
        -1.0
      ],
      "type": "VEC3"
    },
    {
      "bufferView": 1,
      "componentType": 5126,
      "count": 2445,
      "max": [
        5.892960548400879,
        7.608004570007324
      ],
      "min": [
        -4.037660598754883,
        -6.850866317749023
      ],
      "type": "VEC2"
    },
    {
      "bufferView": 1,
      "byteOffset": 19560,
      "componentType": 5126,
      "count": 2445,
      "max": [
        5.892960548400879,
        7.608004570007324
      ],
      "min": [
        -4.037660598754883,
        -6.850866317749023
      ],
      "type": "VEC2"
    },
    {
      "bufferView": 0,
      "componentType": 5125,
      "count": 2934,
      "type": "SCALAR"
    },
    {
      "bufferView": 2,
      "byteOffset": 58680,
      "componentType": 5126,
      "count": 144,
      "max": [
        0.3631386458873749,
        0.3631408214569092,
        1.1032572984695435
      ],
      "min": [
        -0.3631429672241211,
        -0.3631408214569092,
        0.7712074518203735
      ],
      "type": "VEC3"
    },
    {
      "bufferView": 2,
      "byteOffset": 60408,
      "componentType": 5126,
      "count": 144,
      "max": [
        0.980581521987915,
        0.9805814623832703,
        -0.19609536230564117
      ],
      "min": [
        -0.980581521987915,
        -0.9805814623832703,
        -0.19928473234176636
      ],
      "type": "VEC3"
    },
    {
      "bufferView": 1,
      "byteOffset": 39120,
      "componentType": 5126,
      "count": 144,
      "max": [
        1.9033782482147217,
        1.98225736618042
      ],
      "min": [
        -0.9707268476486206,
        0.8913282155990601
      ],
      "type": "VEC2"
    },
    {
      "bufferView": 0,
      "byteOffset": 11736,
      "componentType": 5125,
      "count": 144,
      "type": "SCALAR"
    },
    {
      "bufferView": 2,
      "byteOffset": 62136,
      "componentType": 5126,
      "count": 280,
      "max": [
        0.3136052191257477,
        0.3136052191257477,
        0.9774385094642639
      ],
      "min": [
        -0.3136052191257477,
        -0.3136052191257477,
        0.7262173891067505
      ],
      "type": "VEC3"
    },
    {
      "bufferView": 2,
      "byteOffset": 65496,
      "componentType": 5126,
      "count": 280,
      "max": [
        1.0,
        1.0,
        1.0
      ],
      "min": [
        -1.0,
        -1.0,
        -1.0
      ],
      "type": "VEC3"
    },
    {
      "bufferView": 1,
      "byteOffset": 40272,
      "componentType": 5126,
      "count": 280,
      "max": [
        0.875,
        1.4791433811187744
      ],
      "min": [
        0.04491034150123596,
        0.0
      ],
      "type": "VEC2"
    },
    {
      "bufferView": 0,
      "byteOffset": 12312,
      "componentType": 5125,
      "count": 462,
      "type": "SCALAR"
    },
    {
      "bufferView": 2,
      "byteOffset": 68856,
      "componentType": 5126,
      "count": 6738,
      "max": [
        0.3358682096004486,
        0.3393879532814026,
        1.2414888143539429
      ],
      "min": [
        -0.3358682096004486,
        -0.3393879532814026,
        -0.7972450256347656
      ],
      "type": "VEC3"
    },
    {
      "bufferView": 2,
      "byteOffset": 149712,
      "componentType": 5126,
      "count": 6738,
      "max": [
        0.9160224795341492,
        0.9310929775238037,
        1.0
      ],
      "min": [
        -0.9160224795341492,
        -0.9310929775238037,
        -1.0
      ],
      "type": "VEC3"
    },
    {
      "bufferView": 1,
      "byteOffset": 42512,
      "componentType": 5126,
      "count": 6738,
      "max": [
        2.3317155838012695,
        15.714463233947754
      ],
      "min": [
        -1.331715703010559,
        -14.705887794494629
      ],
      "type": "VEC2"
    },
    {
      "bufferView": 0,
      "byteOffset": 14160,
      "componentType": 5125,
      "count": 7032,
      "type": "SCALAR"
    },
    {
      "bufferView": 2,
      "byteOffset": 230568,
      "componentType": 5126,
      "count": 345,
      "max": [
        0.27467700839042664,
        0.2811852693557739,
        0.7085803747177124
      ],
      "min": [
        -0.1962679773569107,
        -0.29941490292549133,
        0.5498762130737305
      ],
      "type": "VEC3"
    },
    {
      "bufferView": 2,
      "byteOffset": 234708,
      "componentType": 5126,
      "count": 345,
      "max": [
        0.9949158430099487,
        0.9985026717185974,
        0.9997124671936035
      ],
      "min": [
        -0.999907374382019,
        -0.9984949231147766,
        -0.9997124671936035
      ],
      "type": "VEC3"
    },
    {
      "bufferView": 1,
      "byteOffset": 96416,
      "componentType": 5126,
      "count": 345,
      "max": [
        1.0,
        1.0
      ],
      "min": [
        0.125,
        0.0
      ],
      "type": "VEC2"
    },
    {
      "bufferView": 0,
      "byteOffset": 42288,
      "componentType": 5125,
      "count": 1116,
      "type": "SCALAR"
    },
    {
      "bufferView": 2,
      "byteOffset": 238848,
      "componentType": 5126,
      "count": 1194,
      "max": [
        0.32782286405563354,
        0.31774577498435974,
        1.5024999380111694
      ],
      "min": [
        -0.35956010222435,
        -0.33200499415397644,
        0.6353921890258789
      ],
      "type": "VEC3"
    },
    {
      "bufferView": 2,
      "byteOffset": 253176,
      "componentType": 5126,
      "count": 1194,
      "max": [
        0.9992784261703491,
        0.9980700016021729,
        0.9881600737571716
      ],
      "min": [
        -0.9953132271766663,
        -0.9731955528259277,
        -0.9881603121757507
      ],
      "type": "VEC3"
    },
    {
      "bufferView": 1,
      "byteOffset": 99176,
      "componentType": 5126,
      "count": 1194,
      "max": [
        1.0,
        1.0
      ],
      "min": [
        0.0,
        0.0
      ],
      "type": "VEC2"
    },
    {
      "bufferView": 0,
      "byteOffset": 46752,
      "componentType": 5125,
      "count": 3900,
      "type": "SCALAR"
    }
  ],
  "asset": {
    "extras": {
      "author": "catidifat (https://sketchfab.com/catidifat)",
      "license": "CC-BY-4.0 (http://creativecommons.org/licenses/by/4.0/)",
      "source": "https://sketchfab.com/3d-models/aircontroltower-06e9912e119e4cba857b0c2c79e431aa",
      "title": "AirControlTower"
    },
    "generator": "Sketchfab-15.1.0",
    "version": "2.0"
  },
  "bufferViews": [
    {
      "buffer": 0,
      "byteLength": 62352,
      "name": "floatBufferViews",
      "target": 34963
    },
    {
      "buffer": 0,
      "byteLength": 108728,
      "byteOffset": 62352,
      "byteStride": 8,
      "name": "floatBufferViews",
      "target": 34962
    },
    {
      "buffer": 0,
      "byteLength": 267504,
      "byteOffset": 171080,
      "byteStride": 12,
      "name": "floatBufferViews",
      "target": 34962
    }
  ],
  "buffers": [
    {
      "byteLength": 438584,
      "uri": "scene.bin"
    }
  ],
  "images": [
    {
      "uri": "textures/Concrete_baseColor.jpeg"
    },
    {
      "uri": "textures/DarkRustyMetal_baseColor.jpeg"
    }
  ],
  "materials": [
    {
      "doubleSided": true,
      "name": "Concrete",
      "pbrMetallicRoughness": {
        "baseColorTexture": {
          "index": 0
        },
        "metallicFactor": 0.0,
        "roughnessFactor": 0.8211145618000169
      }
    },
    {
      "doubleSided": true,
      "name": "Windows",
      "pbrMetallicRoughness": {
        "baseColorFactor": [
          0.0,
          0.0,
          0.0,
          1.0
        ],
        "metallicFactor": 0.0
      }
    },
    {
      "doubleSided": true,
      "name": "DarkBlackMat",
      "pbrMetallicRoughness": {
        "baseColorFactor": [
          0.0,
          0.0,
          0.0,
          1.0
        ],
        "metallicFactor": 0.0
      }
    },
    {
      "doubleSided": true,
      "name": "DarkRustyMetal",
      "pbrMetallicRoughness": {
        "baseColorTexture": {
          "index": 1
        },
        "metallicFactor": 0.0,
        "roughnessFactor": 0.9590213710307434
      }
    },
    {
      "doubleSided": true,
      "name": "WhitePlasticMat",
      "pbrMetallicRoughness": {
        "baseColorFactor": [
          0.571701,
          0.571701,
          0.571701,
          1.0
        ],
        "metallicFactor": 0.0,
        "roughnessFactor": 0.8937412872437098
      }
    },
    {
      "doubleSided": true,
      "name": "AntennaMat",
      "pbrMetallicRoughness": {
        "baseColorFactor": [
          0.119065,
          0.119065,
          0.119065,
          1.0
        ],
        "metallicFactor": 0.0,
        "roughnessFactor": 0.9733762566258988
      }
    }
  ],
  "meshes": [
    {
      "name": "AirControlTower_Concrete_0",
      "primitives": [
        {
          "attributes": {
            "NORMAL": 1,
            "POSITION": 0,
            "TEXCOORD_0": 2,
            "TEXCOORD_1": 3
          },
          "indices": 4,
          "material": 0,
          "mode": 4
        }
      ]
    },
    {
      "name": "AirControlTower_Windows_0",
      "primitives": [
        {
          "attributes": {
            "NORMAL": 6,
            "POSITION": 5,
            "TEXCOORD_0": 7
          },
          "indices": 8,
          "material": 1,
          "mode": 4
        }
      ]
    },
    {
      "name": "AirControlTower_DarkBlackMat_0",
      "primitives": [
        {
          "attributes": {
            "NORMAL": 10,
            "POSITION": 9,
            "TEXCOORD_0": 11
          },
          "indices": 12,
          "material": 2,
          "mode": 4
        }
      ]
    },
    {
      "name": "AirControlTower_DarkRustyMetal_0",
      "primitives": [
        {
          "attributes": {
            "NORMAL": 14,
            "POSITION": 13,
            "TEXCOORD_0": 15
          },
          "indices": 16,
          "material": 3,
          "mode": 4
        }
      ]
    },
    {
      "name": "AirControlTower_WhitePlasticMat_0",
      "primitives": [
        {
          "attributes": {
            "NORMAL": 18,
            "POSITION": 17,
            "TEXCOORD_0": 19
          },
          "indices": 20,
          "material": 4,
          "mode": 4
        }
      ]
    },
    {
      "name": "AirControlTower_AntennaMat_0",
      "primitives": [
        {
          "attributes": {
            "NORMAL": 22,
            "POSITION": 21,
            "TEXCOORD_0": 23
          },
          "indices": 24,
          "material": 5,
          "mode": 4
        }
      ]
    }
  ],
  "nodes": [
    {
      "children": [
        1
      ],
      "matrix": [
        1.0,
        0.0,
        0.0,
        0.0,
        0.0,
        2.220446049250313e-16,
        -1.0,
        0.0,
        0.0,
        1.0,
        2.220446049250313e-16,
        0.0,
        0.0,
        0.0,
        0.0,
        1.0
      ],
      "name": "Sketchfab_model"
    },
    {
      "children": [
        2
      ],
      "matrix": [
        0.009999999776482582,
        0.0,
        0.0,
        0.0,
        0.0,
        0.0,
        0.009999999776482582,
        0.0,
        0.0,
        -0.009999999776482582,
        0.0,
        0.0,
        0.0,
        0.0,
        0.0,
        1.0
      ],
      "name": "f830192ad42245ea98c3a42d8fcbd221.fbx"
    },
    {
      "children": [
        3
      ],
      "name": "RootNode"
    },
    {
      "children": [
        4,
        5,
        6,
        7,
        8,
        9
      ],
      "matrix": [
        100.0,
        0.0,
        0.0,
        0.0,
        0.0,
        -1.629206793918314e-05,
        -99.99999999999868,
        0.0,
        0.0,
        99.99999999999868,
        -1.629206793918314e-05,
        0.0,
        0.0,
        0.0,
        0.0,
        1.0
      ],
      "name": "AirControlTower"
    },
    {
      "mesh": 0,
      "name": "AirControlTower_Concrete_0"
    },
    {
      "mesh": 1,
      "name": "AirControlTower_Windows_0"
    },
    {
      "mesh": 2,
      "name": "AirControlTower_DarkBlackMat_0"
    },
    {
      "mesh": 3,
      "name": "AirControlTower_DarkRustyMetal_0"
    },
    {
      "mesh": 4,
      "name": "AirControlTower_WhitePlasticMat_0"
    },
    {
      "mesh": 5,
      "name": "AirControlTower_AntennaMat_0"
    }
  ],
  "samplers": [
    {
      "magFilter": 9729,
      "minFilter": 9987,
      "wrapS": 10497,
      "wrapT": 10497
    }
  ],
  "scene": 0,
  "scenes": [
    {
      "name": "Sketchfab_Scene",
      "nodes": [
        0
      ]
    }
  ],
  "textures": [
    {
      "sampler": 0,
      "source": 0
    },
    {
      "sampler": 0,
      "source": 1
    }
  ]
}
