{
  "accessors": [
    {
      "bufferView": 2,
      "componentType": 5126,
      "count": 65532,
      "max": [
        1.0000001192092896,
        1.0000001192092896,
        0.15946981310844421
      ],
      "min": [
        -1.0000001192092896,
        -1.0000001192092896,
        -0.019999999552965164
      ],
      "type": "VEC3"
    },
    {
      "bufferView": 2,
      "byteOffset": 786384,
      "componentType": 5126,
      "count": 65532,
      "max": [
        0.9991384744644165,
        0.9994326829910278,
        1.0
      ],
      "min": [
        -0.999243974685669,
        -0.9897727966308594,
        -0.984168529510498
      ],
      "type": "VEC3"
    },
    {
      "bufferView": 1,
      "componentType": 5126,
      "count": 65532,
      "max": [
        0.9846899509429932,
        0.9996761679649353
      ],
      "min": [
        0.0001404271024512127,
        9.961992327589542e-05
      ],
      "type": "VEC2"
    },
    {
      "bufferView": 0,
      "componentType": 5125,
      "count": 387039,
      "type": "SCALAR"
    },
    {
      "bufferView": 2,
      "byteOffset": 1572768,
      "componentType": 5126,
      "count": 65532,
      "max": [
        1.0000001192092896,
        1.0000001192092896,
        0.43861860036849976
      ],
      "min": [
        -1.0000001192092896,
        -1.0000001192092896,
        -0.019999999552965164
      ],
      "type": "VEC3"
    },
    {
      "bufferView": 2,
      "byteOffset": 2359152,
      "componentType": 5126,
      "count": 65532,
      "max": [
        0.9998400211334229,
        0.9999501705169678,
        1.0
      ],
      "min": [
        -0.9998151063919067,
        -0.9992794990539551,
        -0.9997707605361938
      ],
      "type": "VEC3"
    },
    {
      "bufferView": 1,
      "byteOffset": 524256,
      "componentType": 5126,
      "count": 65532,
      "max": [
        0.9846908450126648,
        0.9999006986618042
      ],
      "min": [
        0.0014176700497046113,
        0.020882343873381615
      ],
      "type": "VEC2"
    },
    {
      "bufferView": 0,
      "byteOffset": 1548156,
      "componentType": 5125,
      "count": 387837,
      "type": "SCALAR"
    },
    {
      "bufferView": 2,
      "byteOffset": 3145536,
      "componentType": 5126,
      "count": 65532,
      "max": [
        0.4251628816127777,
        0.9999793767929077,
        0.6357481479644775
      ],
      "min": [
        -0.9999799728393555,
        -0.4349115490913391,
        -0.019999388605356216
      ],
      "type": "VEC3"
    },
    {
      "bufferView": 2,
      "byteOffset": 3931920,
      "componentType": 5126,
      "count": 65532,
      "max": [
        0.9999468326568604,
        0.9999986886978149,
        0.9999995231628418
      ],
      "min": [
        -0.9998819828033447,
        -0.999946117401123,
        -0.9999669790267944
      ],
      "type": "VEC3"
    },
    {
      "bufferView": 1,
      "byteOffset": 1048512,
      "componentType": 5126,
      "count": 65532,
      "max": [
        0.6990947723388672,
        0.9997860789299011
      ],
      "min": [
        0.002473924309015274,
        0.2804977297782898
      ],
      "type": "VEC2"
    },
    {
      "bufferView": 0,
      "byteOffset": 3099504,
      "componentType": 5125,
      "count": 388833,
      "type": "SCALAR"
    },
    {
      "bufferView": 2,
      "byteOffset": 4718304,
      "componentType": 5126,
      "count": 65532,
      "max": [
        0.3557571768760681,
        1.0000001192092896,
        0.49358490109443665
      ],
      "min": [
        -1.0000001192092896,
        -0.022838100790977478,
        -0.019999999552965164
      ],
      "type": "VEC3"
    },
    {
      "bufferView": 2,
      "byteOffset": 5504688,
      "componentType": 5126,
      "count": 65532,
      "max": [
        0.9997768402099609,
        0.9999631643295288,
        1.0
      ],
      "min": [
        -0.9995284080505371,
        -0.9996756315231323,
        -0.9999837875366211
      ],
      "type": "VEC3"
    },
    {
      "bufferView": 1,
      "byteOffset": 1572768,
      "componentType": 5126,
      "count": 65532,
      "max": [
        0.6741750240325928,
        0.9933001399040222
      ],
      "min": [
        0.008455915376543999,
        0.47140875458717346
      ],
      "type": "VEC2"
    },
    {
      "bufferView": 0,
      "byteOffset": 4654836,
      "componentType": 5125,
      "count": 390069,
      "type": "SCALAR"
    },
    {
      "bufferView": 2,
      "byteOffset": 6291072,
      "componentType": 5126,
      "count": 1216,
      "max": [
        -0.8666667342185974,
        1.0000001192092896,
        -0.019999388605356216
      ],
      "min": [
        -1.0000001192092896,
        -1.0000001192092896,
        -0.019999999552965164
      ],
      "type": "VEC3"
    },
    {
      "bufferView": 2,
      "byteOffset": 6305664,
      "componentType": 5126,
      "count": 1216,
      "max": [
        3.0518509447574615e-05,
        6.103701889514923e-05,
        1.0
      ],
      "min": [
        -3.0518509447574615e-05,
        -3.0518509447574615e-05,
        1.0
      ],
      "type": "VEC3"
    },
    {
      "bufferView": 1,
      "byteOffset": 2097024,
      "componentType": 5126,
      "count": 1216,
      "max": [
        0.08508739620447159,
        0.9675612449645996
      ],
      "min": [
        9.92167551885359e-05,
        0.0026688119396567345
      ],
      "type": "VEC2"
    },
    {
      "bufferView": 0,
      "byteOffset": 6215112,
      "componentType": 5125,
      "count": 6822,
      "type": "SCALAR"
    }
  ],
  "asset": {
    "extras": {
      "author": "saitejeswar (https://sketchfab.com/saieswar)",
      "license": "CC-BY-4.0 (http://creativecommons.org/licenses/by/4.0/)",
      "source": "https://sketchfab.com/3d-models/mountain-0e0f8809a12b41d78c6501df8514f837",
      "title": "mountain"
    },
    "generator": "Sketchfab-12.65.0",
    "version": "2.0"
  },
  "bufferViews": [
    {
      "buffer": 0,
      "byteLength": 6242400,
      "name": "floatBufferViews",
      "target": 34963
    },
    {
      "buffer": 0,
      "byteLength": 2106752,
      "byteOffset": 6242400,
      "byteStride": 8,
      "name": "floatBufferViews",
      "target": 34962
    },
    {
      "buffer": 0,
      "byteLength": 6320256,
      "byteOffset": 8349152,
      "byteStride": 12,
      "name": "floatBufferViews",
      "target": 34962
    }
  ],
  "buffers": [
    {
      "byteLength": 14669408,
      "uri": "scene.bin"
    }
  ],
  "images": [
    {
      "uri": "textures/Material.001_baseColor.jpeg"
    }
  ],
  "materials": [
    {
      "doubleSided": true,
      "name": "Material.001",
      "pbrMetallicRoughness": {
        "baseColorFactor": [
          0.7421310831737834,
          0.7421310831737834,
          0.7421310831737834,
          1.0
        ],
        "baseColorTexture": {
          "index": 0
        },
        "metallicFactor": 0.37796944396085813,
        "roughnessFactor": 0.6996455585989422
      }
    }
  ],
  "meshes": [
    {
      "name": "mount terrain_Material.001_0",
      "primitives": [
        {
          "attributes": {
            "NORMAL": 1,
            "POSITION": 0,
            "TEXCOORD_0": 2
          },
          "indices": 3,
          "material": 0,
          "mode": 4
        }
      ]
    },
    {
      "name": "mount terrain_Material.001_0",
      "primitives": [
        {
          "attributes": {
            "NORMAL": 5,
            "POSITION": 4,
            "TEXCOORD_0": 6
          },
          "indices": 7,
          "material": 0,
          "mode": 4
        }
      ]
    },
    {
      "name": "mount terrain_Material.001_0",
      "primitives": [
        {
          "attributes": {
            "NORMAL": 9,
            "POSITION": 8,
            "TEXCOORD_0": 10
          },
          "indices": 11,
          "material": 0,
          "mode": 4
        }
      ]
    },
    {
      "name": "mount terrain_Material.001_0",
      "primitives": [
        {
          "attributes": {
            "NORMAL": 13,
            "POSITION": 12,
            "TEXCOORD_0": 14
          },
          "indices": 15,
          "material": 0,
          "mode": 4
        }
      ]
    },
    {
      "name": "mount terrain_Material.001_0",
      "primitives": [
        {
          "attributes": {
            "NORMAL": 17,
            "POSITION": 16,
            "TEXCOORD_0": 18
          },
          "indices": 19,
          "material": 0,
          "mode": 4
        }
      ]
    }
  ],
  "nodes": [
    {
      "children": [
        1
      ],
      "matrix": [
        1.0,
        0.0,
        0.0,
        0.0,
        0.0,
        2.220446049250313e-16,
        -1.0,
        0.0,
        0.0,
        1.0,
        2.220446049250313e-16,
        0.0,
        0.0,
        0.0,
        0.0,
        1.0
      ],
      "name": "Sketchfab_model"
    },
    {
      "children": [
        2
      ],
      "matrix": [
        0.009999999776482582,
        0.0,
        0.0,
        0.0,
        0.0,
        0.0,
        0.009999999776482582,
        0.0,
        0.0,
        -0.009999999776482582,
        0.0,
        0.0,
        0.0,
        0.0,
        0.0,
        1.0
      ],
      "name": "86e2d0bcb7284545a0897c28958efa4a.fbx"
    },
    {
      "children": [
        3
      ],
      "name": "RootNode"
    },
    {
      "children": [
        4,
        5,
        6,
        7,
        8
      ],
      "matrix": [
        100.0,
        0.0,
        0.0,
        0.0,
        0.0,
        -1.629206793918314e-05,
        -99.99999999999868,
        0.0,
        0.0,
        99.99999999999868,
        -1.629206793918314e-05,
        0.0,
        0.0,
        0.0,
        0.0,
        1.0
      ],
      "name": "mount terrain"
    },
    {
      "mesh": 0,
      "name": "mount terrain_Material.001_0"
    },
    {
      "mesh": 1,
      "name": "mount terrain_Material.001_0"
    },
    {
      "mesh": 2,
      "name": "mount terrain_Material.001_0"
    },
    {
      "mesh": 3,
      "name": "mount terrain_Material.001_0"
    },
    {
      "mesh": 4,
      "name": "mount terrain_Material.001_0"
    }
  ],
  "samplers": [
    {
      "magFilter": 9729,
      "minFilter": 9987,
      "wrapS": 10497,
      "wrapT": 10497
    }
  ],
  "scene": 0,
  "scenes": [
    {
      "name": "Sketchfab_Scene",
      "nodes": [
        0
      ]
    }
  ],
  "textures": [
    {
      "sampler": 0,
      "source": 0
    }
  ]
}
