{
  "accessors": [
    {
      "bufferView": 2,
      "componentType": 5126,
      "count": 257,
      "max": [
        692.0418701171875,
        31.434375762939453,
        12.932757377624512
      ],
      "min": [
        594.1038818359375,
        -31.41998291015625,
        -46.74644088745117
      ],
      "type": "VEC3"
    },
    {
      "bufferView": 2,
      "byteOffset": 3084,
      "componentType": 5126,
      "count": 257,
      "max": [
        0.9919169545173645,
        0.998679518699646,
        0.259091854095459
      ],
      "min": [
        -0.8526614308357239,
        -0.9988095164299011,
        -0.9996050000190735
      ],
      "type": "VEC3"
    },
    {
      "bufferView": 3,
      "componentType": 5126,
      "count": 257,
      "max": [
        0.2585637867450714,
        0.3668347895145416,
        0.8512569665908813,
        1.0
      ],
      "min": [
        -0.9997649192810059,
        -0.4276440739631653,
        -0.9918406009674072,
        1.0
      ],
      "type": "VEC4"
    },
    {
      "bufferView": 1,
      "componentType": 5126,
      "count": 257,
      "max": [
        0.9881012439727783,
        0.8878361582756042
      ],
      "min": [
        0.013243886642158031,
        0.1364082247018814
      ],
      "type": "VEC2"
    },
    {
      "bufferView": 1,
      "byteOffset": 2056,
      "componentType": 5126,
      "count": 257,
      "max": [
        0.9881012439727783,
        0.8878361582756042
      ],
      "min": [
        0.013243886642158031,
        0.1364082247018814
      ],
      "type": "VEC2"
    },
    {
      "bufferView": 1,
      "byteOffset": 4112,
      "componentType": 5126,
      "count": 257,
      "max": [
        0.9881012439727783,
        0.8878361582756042
      ],
      "min": [
        0.013243886642158031,
        0.1364082247018814
      ],
      "type": "VEC2"
    },
    {
      "bufferView": 1,
      "byteOffset": 6168,
      "componentType": 5126,
      "count": 257,
      "max": [
        0.9881012439727783,
        0.8878361582756042
      ],
      "min": [
        0.013243886642158031,
        0.1364082247018814
      ],
      "type": "VEC2"
    },
    {
      "bufferView": 1,
      "byteOffset": 8224,
      "componentType": 5126,
      "count": 257,
      "max": [
        0.9881012439727783,
        0.8878361582756042
      ],
      "min": [
        0.013243886642158031,
        0.1364082247018814
      ],
      "type": "VEC2"
    },
    {
      "bufferView": 0,
      "componentType": 5125,
      "count": 1440,
      "type": "SCALAR"
    },
    {
      "bufferView": 2,
      "byteOffset": 6168,
      "componentType": 5126,
      "count": 6767,
      "max": [
        381.32470703125,
        40.67634201049805,
        787.7024536132813
      ],
      "min": [
        -381.32470703125,
        -40.67634201049805,
        0.0
      ],
      "type": "VEC3"
    },
    {
      "bufferView": 2,
      "byteOffset": 87372,
      "componentType": 5126,
      "count": 6767,
      "max": [
        1.0,
        1.0,
        1.0
      ],
      "min": [
        -1.0,
        -1.0,
        -1.0
      ],
      "type": "VEC3"
    },
    {
      "bufferView": 3,
      "byteOffset": 4112,
      "componentType": 5126,
      "count": 6767,
      "max": [
        1.0,
        1.0,
        0.9968857765197754,
        1.0
      ],
      "min": [
        -1.0,
        -1.0,
        -0.9904448390007019,
        -1.0
      ],
      "type": "VEC4"
    },
    {
      "bufferView": 1,
      "byteOffset": 10280,
      "componentType": 5126,
      "count": 6767,
      "max": [
        0.933319628238678,
        0.989841639995575
      ],
      "min": [
        0.060868795961141586,
        0.009234265424311161
      ],
      "type": "VEC2"
    },
    {
      "bufferView": 1,
      "byteOffset": 64416,
      "componentType": 5126,
      "count": 6767,
      "max": [
        0.933319628238678,
        0.989841639995575
      ],
      "min": [
        0.060868795961141586,
        0.009234265424311161
      ],
      "type": "VEC2"
    },
    {
      "bufferView": 1,
      "byteOffset": 118552,
      "componentType": 5126,
      "count": 6767,
      "max": [
        0.933319628238678,
        0.989841639995575
      ],
      "min": [
        0.060868795961141586,
        0.009234265424311161
      ],
      "type": "VEC2"
    },
    {
      "bufferView": 0,
      "byteOffset": 5760,
      "componentType": 5125,
      "count": 33384,
      "type": "SCALAR"
    },
    {
      "bufferView": 2,
      "byteOffset": 168576,
      "componentType": 5126,
      "count": 257,
      "max": [
        39.971290588378906,
        31.434362411499023,
        12.932819366455078
      ],
      "min": [
        -57.966705322265625,
        -31.420000076293945,
        -46.74638366699219
      ],
      "type": "VEC3"
    },
    {
      "bufferView": 2,
      "byteOffset": 171660,
      "componentType": 5126,
      "count": 257,
      "max": [
        0.8526623249053955,
        0.9986793994903564,
        0.2590964734554291
      ],
      "min": [
        -0.9919165968894958,
        -0.9988095164299011,
        -0.9996050000190735
      ],
      "type": "VEC3"
    },
    {
      "bufferView": 3,
      "byteOffset": 112384,
      "componentType": 5126,
      "count": 257,
      "max": [
        0.2585681676864624,
        0.4276438355445862,
        0.9918404221534729,
        1.0
      ],
      "min": [
        -0.9997649192810059,
        -0.3668345808982849,
        -0.8512580394744873,
        1.0
      ],
      "type": "VEC4"
    },
    {
      "bufferView": 1,
      "byteOffset": 172688,
      "componentType": 5126,
      "count": 257,
      "max": [
        0.9881591796875,
        0.8879417777061462
      ],
      "min": [
        0.01330190896987915,
        0.1365140974521637
      ],
      "type": "VEC2"
    },
    {
      "bufferView": 1,
      "byteOffset": 174744,
      "componentType": 5126,
      "count": 257,
      "max": [
        0.9881591796875,
        0.8879417777061462
      ],
      "min": [
        0.01330190896987915,
        0.1365140974521637
      ],
      "type": "VEC2"
    },
    {
      "bufferView": 1,
      "byteOffset": 176800,
      "componentType": 5126,
      "count": 257,
      "max": [
        0.9881591796875,
        0.8879417777061462
      ],
      "min": [
        0.01330190896987915,
        0.1365140974521637
      ],
      "type": "VEC2"
    },
    {
      "bufferView": 1,
      "byteOffset": 178856,
      "componentType": 5126,
      "count": 257,
      "max": [
        0.9881591796875,
        0.8879417777061462
      ],
      "min": [
        0.01330190896987915,
        0.1365140974521637
      ],
      "type": "VEC2"
    },
    {
      "bufferView": 1,
      "byteOffset": 180912,
      "componentType": 5126,
      "count": 257,
      "max": [
        0.9881591796875,
        0.8879417777061462
      ],
      "min": [
        0.01330190896987915,
        0.1365140974521637
      ],
      "type": "VEC2"
    },
    {
      "bufferView": 0,
      "byteOffset": 139296,
      "componentType": 5125,
      "count": 1440,
      "type": "SCALAR"
    }
  ],
  "asset": {
    "extras": {
      "author": "Misam Ali Rizvi (https://sketchfab.com/MisamAliRizvi)",
      "license": "CC-BY-4.0 (http://creativecommons.org/licenses/by/4.0/)",
      "source": "https://sketchfab.com/3d-models/streetlamp-04-c-c3db045da420476bb49d19efade3630f",
      "title": "StreetLamp_04_C"
    },
    "generator": "Sketchfab-14.87.0",
    "version": "2.0"
  },
  "bufferViews": [
    {
      "buffer": 0,
      "byteLength": 145056,
      "name": "floatBufferViews",
      "target": 34963
    },
    {
      "buffer": 0,
      "byteLength": 182968,
      "byteOffset": 145056,
      "byteStride": 8,
      "name": "floatBufferViews",
      "target": 34962
    },
    {
      "buffer": 0,
      "byteLength": 174744,
      "byteOffset": 328024,
      "byteStride": 12,
      "name": "floatBufferViews",
      "target": 34962
    },
    {
      "buffer": 0,
      "byteLength": 116496,
      "byteOffset": 502768,
      "byteStride": 16,
      "name": "floatBufferViews",
      "target": 34962
    }
  ],
  "buffers": [
    {
      "byteLength": 619264,
      "uri": "scene.bin"
    }
  ],
  "extensionsRequired": [
    "KHR_materials_pbrSpecularGlossiness"
  ],
  "extensionsUsed": [
    "KHR_materials_pbrSpecularGlossiness"
  ],
  "images": [
    {
      "uri": "textures/Light_Right_04_C_diffuse.jpeg"
    },
    {
      "uri": "textures/Light_Right_04_C_specularGlossiness.png"
    },
    {
      "uri": "textures/Light_Right_04_C_emissive.jpeg"
    },
    {
      "uri": "textures/Light_Right_04_C_normal.png"
    },
    {
      "uri": "textures/Body_04_C_diffuse.jpeg"
    },
    {
      "uri": "textures/Body_04_C_specularGlossiness.png"
    },
    {
      "uri": "textures/Body_04_C_normal.png"
    },
    {
      "uri": "textures/Light_Left_04_C_diffuse.jpeg"
    },
    {
      "uri": "textures/Light_Left_04_C_specularGlossiness.png"
    },
    {
      "uri": "textures/Light_Left_04_C_emissive.jpeg"
    },
    {
      "uri": "textures/Light_Left_04_C_normal.png"
    }
  ],
  "materials": [
    {
      "doubleSided": true,
      "emissiveFactor": [
        1.0,
        1.0,
        1.0
      ],
      "emissiveTexture": {
        "index": 2
      },
      "extensions": {
        "KHR_materials_pbrSpecularGlossiness": {
          "diffuseFactor": [
            1.0,
            1.0,
            1.0,
            1.0
          ],
          "diffuseTexture": {
            "index": 0
          },
          "glossinessFactor": 1.0,
          "specularFactor": [
            1.0,
            1.0,
            1.0
          ],
          "specularGlossinessTexture": {
            "index": 1
          }
        }
      },
      "name": "Light_Right_04_C",
      "normalTexture": {
        "index": 3
      }
    },
    {
      "doubleSided": true,
      "extensions": {
        "KHR_materials_pbrSpecularGlossiness": {
          "diffuseFactor": [
            1.0,
            1.0,
            1.0,
            1.0
          ],
          "diffuseTexture": {
            "index": 4
          },
          "glossinessFactor": 1.0,
          "specularFactor": [
            1.0,
            1.0,
            1.0
          ],
          "specularGlossinessTexture": {
            "index": 5
          }
        }
      },
      "name": "Body_04_C",
      "normalTexture": {
        "index": 6
      }
    },
    {
      "doubleSided": true,
      "emissiveFactor": [
        1.0,
        1.0,
        1.0
      ],
      "emissiveTexture": {
        "index": 9
      },
      "extensions": {
        "KHR_materials_pbrSpecularGlossiness": {
          "diffuseFactor": [
            1.0,
            1.0,
            1.0,
            1.0
          ],
          "diffuseTexture": {
            "index": 7
          },
          "glossinessFactor": 1.0,
          "specularFactor": [
            1.0,
            1.0,
            1.0
          ],
          "specularGlossinessTexture": {
            "index": 8
          }
        }
      },
      "name": "Light_Left_04_C",
      "normalTexture": {
        "index": 10
      }
    }
  ],
  "meshes": [
    {
      "name": "Light_Right_04_C_Light_Right_04_C_0",
      "primitives": [
        {
          "attributes": {
            "NORMAL": 1,
            "POSITION": 0,
            "TANGENT": 2,
            "TEXCOORD_0": 3,
            "TEXCOORD_1": 4,
            "TEXCOORD_2": 5,
            "TEXCOORD_3": 6,
            "TEXCOORD_4": 7
          },
          "indices": 8,
          "material": 0,
          "mode": 4
        }
      ]
    },
    {
      "name": "Body_04_C_Body_04_C_0",
      "primitives": [
        {
          "attributes": {
            "NORMAL": 10,
            "POSITION": 9,
            "TANGENT": 11,
            "TEXCOORD_0": 12,
            "TEXCOORD_1": 13,
            "TEXCOORD_2": 14
          },
          "indices": 15,
          "material": 1,
          "mode": 4
        }
      ]
    },
    {
      "name": "Light_Left_04_C_Light_Left_04_C_0",
      "primitives": [
        {
          "attributes": {
            "NORMAL": 17,
            "POSITION": 16,
            "TANGENT": 18,
            "TEXCOORD_0": 19,
            "TEXCOORD_1": 20,
            "TEXCOORD_2": 21,
            "TEXCOORD_3": 22,
            "TEXCOORD_4": 23
          },
          "indices": 24,
          "material": 2,
          "mode": 4
        }
      ]
    }
  ],
  "nodes": [
    {
      "children": [
        1
      ],
      "matrix": [
        -1.0,
        2.8327693431939985e-16,
        1.60812262295773e-16,
        0.0,
        -1.6081226229577292e-16,
        2.2204460492503136e-16,
        -1.0,
        0.0,
        -2.832769343193999e-16,
        -1.0,
        -2.2204460492503128e-16,
        0.0,
        0.0,
        0.0,
        0.0,
        1.0
      ],
      "name": "Sketchfab_model"
    },
    {
      "children": [
        2
      ],
      "matrix": [
        1.0,
        0.0,
        0.0,
        0.0,
        0.0,
        -1.0,
        0.0,
        0.0,
        0.0,
        0.0,
        -1.0,
        0.0,
        0.0,
        0.0,
        0.0,
        1.0
      ],
      "name": "e14820d640fd420a9123fd6358dc3b67.fbx"
    },
    {
      "children": [
        3
      ],
      "name": "RootNode"
    },
    {
      "children": [
        4,
        7,
        10
      ],
      "matrix": [
        0.5685100555419922,
        0.0,
        0.0,
        0.0,
        0.0,
        0.5685100555419922,
        0.0,
        0.0,
        0.0,
        0.0,
        0.5685100555419922,
        0.0,
        0.0,
        0.0,
        0.0,
        1.0
      ],
      "name": "StreetLamp_04_C"
    },
    {
      "children": [
        5
      ],
      "matrix": [
        1.0,
        0.0,
        0.0,
        0.0,
        0.0,
        1.0,
        0.0,
        0.0,
        0.0,
        0.0,
        1.0,
        0.0,
        326.0351867675781,
        -3.665501832962036,
        739.7550048828125,
        1.0
      ],
      "name": "Light_Right_04_C"
    },
    {
      "children": [
        6
      ],
      "matrix": [
        1.0,
        0.0,
        -0.0,
        0.0,
        0.0,
        1.0,
        0.0,
        0.0,
        0.0,
        0.0,
        1.0,
        0.0,
        -643.0728759765625,
        -0.0071965595707297325,
        16.90679931640625,
        1.0
      ],
      "name": "Object_5"
    },
    {
      "mesh": 0,
      "name": "Light_Right_04_C_Light_Right_04_C_0"
    },
    {
      "children": [
        8
      ],
      "matrix": [
        1.0,
        0.0,
        0.0,
        0.0,
        0.0,
        1.0,
        0.0,
        0.0,
        0.0,
        0.0,
        1.0,
        0.0,
        1.52587890625e-05,
        -9.5367431640625e-07,
        393.85125732421875,
        1.0
      ],
      "name": "Body_04_C"
    },
    {
      "children": [
        9
      ],
      "matrix": [
        1.0,
        0.0,
        -0.0,
        0.0,
        0.0,
        1.0,
        0.0,
        0.0,
        0.0,
        0.0,
        1.0,
        0.0,
        0.0,
        0.0,
        -393.8512268066406,
        1.0
      ],
      "name": "Object_8"
    },
    {
      "mesh": 1,
      "name": "Body_04_C_Body_04_C_0"
    },
    {
      "children": [
        11
      ],
      "matrix": [
        1.0,
        0.0,
        0.0,
        0.0,
        0.0,
        1.0,
        0.0,
        0.0,
        0.0,
        0.0,
        1.0,
        0.0,
        -326.0354309082031,
        -3.6655192375183105,
        739.7550048828125,
        1.0
      ],
      "name": "Light_Left_04_C"
    },
    {
      "children": [
        12
      ],
      "matrix": [
        1.0,
        0.0,
        -0.0,
        0.0,
        0.0,
        1.0,
        0.0,
        0.0,
        0.0,
        0.0,
        1.0,
        0.0,
        8.99770736694336,
        -0.007181367836892605,
        16.90679931640625,
        1.0
      ],
      "name": "Object_11"
    },
    {
      "mesh": 2,
      "name": "Light_Left_04_C_Light_Left_04_C_0"
    }
  ],
  "samplers": [
    {
      "magFilter": 9729,
      "minFilter": 9987,
      "wrapS": 10497,
      "wrapT": 10497
    }
  ],
  "scene": 0,
  "scenes": [
    {
      "name": "Sketchfab_Scene",
      "nodes": [
        0
      ]
    }
  ],
  "textures": [
    {
      "sampler": 0,
      "source": 0
    },
    {
      "sampler": 0,
      "source": 1
    },
    {
      "sampler": 0,
      "source": 2
    },
    {
      "sampler": 0,
      "source": 3
    },
    {
      "sampler": 0,
      "source": 4
    },
    {
      "sampler": 0,
      "source": 5
    },
    {
      "sampler": 0,
      "source": 6
    },
    {
      "sampler": 0,
      "source": 7
    },
    {
      "sampler": 0,
      "source": 8
    },
    {
      "sampler": 0,
      "source": 9
    },
    {
      "sampler": 0,
      "source": 10
    }
  ]
}
